HIERARCHY
ROOT Hips
{
	OFFSET 0.000000 103.266502 0.000000
	CHANNELS 6 Xposition Yposition Zposition Xrotation Yrotation Zrotation 
	JOINT Spine
	{
		OFFSET -0.002400 12.777504 0.315300
		CHANNELS 3 Xrotation Yrotation Zrotation
		JOINT Spine1
		{
			OFFSET -0.002067 5.816869 0.032633
			CHANNELS 3 Xrotation Yrotation Zrotation
			JOINT Spine1_split
			{
				OFFSET -0.002067 5.816869 0.032633
				CHANNELS 3 Xrotation Yrotation Zrotation
				JOINT Spine2
				{
					OFFSET -0.002067 5.816869 0.032633
					CHANNELS 3 Xrotation Yrotation Zrotation
					JOINT Neck
					{
						OFFSET -0.003700 21.199493 -0.826900
						CHANNELS 3 Xrotation Yrotation Zrotation
						JOINT Head
						{
							OFFSET 0.000000 20.442200 4.834800
							CHANNELS 3 Xrotation Yrotation Zrotation
							JOINT HeadTop_End
							{
								OFFSET 0.000000 34.668396 4.968400
								CHANNELS 3 Xrotation Yrotation Zrotation
								End Site
								{
									OFFSET 0.000000 0.000000 0.000000
								}
							}
						}
					}
					JOINT LeftShoulder
					{
						OFFSET 3.288150 8.794197 -1.372250
						CHANNELS 3 Xrotation Yrotation Zrotation
						JOINT LeftShoulder_split
						{
							OFFSET 3.288150 8.794197 -1.372250
							CHANNELS 3 Xrotation Yrotation Zrotation
							JOINT LeftArm
							{
								OFFSET 11.953299 -2.279007 -0.146200
								CHANNELS 3 Xrotation Yrotation Zrotation
								JOINT LeftForeArm
								{
									OFFSET 18.448900 0.000000 0.000000
									CHANNELS 3 Xrotation Yrotation Zrotation
									JOINT LeftHand
									{
										OFFSET 29.527798 0.000000 0.000000
										CHANNELS 3 Xrotation Yrotation Zrotation
										JOINT LeftHandThumb1
										{
											OFFSET 10.739754 -2.369614 9.225399
											CHANNELS 3 Xrotation Yrotation Zrotation
											JOINT LeftHandThumb2
											{
												OFFSET 4.926170 -2.844131 2.844125
												CHANNELS 3 Xrotation Yrotation Zrotation
												JOINT LeftHandThumb3
												{
													OFFSET 4.614891 -2.664413 2.664409
													CHANNELS 3 Xrotation Yrotation Zrotation
													JOINT LeftHandThumb4
													{
														OFFSET 4.432465 -2.559082 2.559083
														CHANNELS 3 Xrotation Yrotation Zrotation
														End Site
														{
															OFFSET 0.000000 0.000000 0.000000
														}
													}
												}
											}
										}
										JOINT LeftHandIndex1
										{
											OFFSET 26.467674 0.187653 6.405298
											CHANNELS 3 Xrotation Yrotation Zrotation
											JOINT LeftHandIndex2
											{
												OFFSET 8.792900 0.000000 0.000000
												CHANNELS 3 Xrotation Yrotation Zrotation
												JOINT LeftHandIndex3
												{
													OFFSET 10.075203 0.000000 0.000000
													CHANNELS 3 Xrotation Yrotation Zrotation
													End Site
													{
														OFFSET 0.000000 0.000000 0.000000
													}
												}
											}
										}
										JOINT LeftHandMiddle1
										{
											OFFSET 25.764404 0.000000 0.000000
											CHANNELS 3 Xrotation Yrotation Zrotation
											JOINT LeftHandMiddle2
											{
												OFFSET 9.393974 0.000000 0.000000
												CHANNELS 3 Xrotation Yrotation Zrotation
												JOINT LeftHandMiddle3
												{
													OFFSET 10.771950 0.000000 0.000000
													CHANNELS 3 Xrotation Yrotation Zrotation
													End Site
													{
														OFFSET 0.000000 0.000000 0.000000
													}
												}
											}
										}
										JOINT LeftHandRing1
										{
											OFFSET 24.660927 0.144547 -6.225808
											CHANNELS 3 Xrotation Yrotation Zrotation
											JOINT LeftHandRing2
											{
												OFFSET 9.393799 0.000000 0.000000
												CHANNELS 3 Xrotation Yrotation Zrotation
												JOINT LeftHandRing3
												{
													OFFSET 9.928497 0.000000 0.000000
													CHANNELS 3 Xrotation Yrotation Zrotation
													End Site
													{
														OFFSET 0.000000 0.000000 0.000000
													}
												}
											}
										}
										JOINT LeftHandPinky1
										{
											OFFSET 23.655350 0.125290 -12.815412
											CHANNELS 3 Xrotation Yrotation Zrotation
											JOINT LeftHandPinky2
											{
												OFFSET 8.425102 0.000000 0.000000
												CHANNELS 3 Xrotation Yrotation Zrotation
												JOINT LeftHandPinky3
												{
													OFFSET 8.147003 0.000000 0.000000
													CHANNELS 3 Xrotation Yrotation Zrotation
													End Site
													{
														OFFSET 0.000000 0.000000 0.000000
													}
												}
											}
										}
									}
								}
							}
						}
					}
					JOINT RightShoulder
					{
						OFFSET -3.249400 8.794197 -1.372250
						CHANNELS 3 Xrotation Yrotation Zrotation
						JOINT RightShoulder_split
						{
							OFFSET -3.249400 8.794197 -1.372250
							CHANNELS 3 Xrotation Yrotation Zrotation
							JOINT RightArm
							{
								OFFSET -11.953299 -2.279007 -0.146200
								CHANNELS 3 Xrotation Yrotation Zrotation
								JOINT RightForeArm
								{
									OFFSET -18.448900 0.000000 0.000000
									CHANNELS 3 Xrotation Yrotation Zrotation
									JOINT RightHand
									{
										OFFSET -29.527802 0.000000 0.000000
										CHANNELS 3 Xrotation Yrotation Zrotation
										JOINT RightHandThumb1
										{
											OFFSET -10.739754 -2.369614 9.225399
											CHANNELS 3 Xrotation Yrotation Zrotation
											JOINT RightHandThumb2
											{
												OFFSET -4.926170 -2.844131 2.844125
												CHANNELS 3 Xrotation Yrotation Zrotation
												JOINT RightHandThumb3
												{
													OFFSET -4.614891 -2.664413 2.664409
													CHANNELS 3 Xrotation Yrotation Zrotation
													JOINT RightHandThumb4
													{
														OFFSET -4.432465 -2.559082 2.559083
														CHANNELS 3 Xrotation Yrotation Zrotation
														End Site
														{
															OFFSET 0.000000 0.000000 0.000000
														}
													}
												}
											}
										}
										JOINT RightHandIndex1
										{
											OFFSET -26.467674 0.187653 6.405298
											CHANNELS 3 Xrotation Yrotation Zrotation
											JOINT RightHandIndex2
											{
												OFFSET -8.792900 0.000000 0.000000
												CHANNELS 3 Xrotation Yrotation Zrotation
												JOINT RightHandIndex3
												{
													OFFSET -10.075203 0.000000 0.000000
													CHANNELS 3 Xrotation Yrotation Zrotation
													End Site
													{
														OFFSET 0.000000 0.000000 0.000000
													}
												}
											}
										}
										JOINT RightHandMiddle1
										{
											OFFSET -25.764404 0.000000 0.000000
											CHANNELS 3 Xrotation Yrotation Zrotation
											JOINT RightHandMiddle2
											{
												OFFSET -9.393974 0.000000 0.000000
												CHANNELS 3 Xrotation Yrotation Zrotation
												JOINT RightHandMiddle3
												{
													OFFSET -10.771950 0.000000 0.000000
													CHANNELS 3 Xrotation Yrotation Zrotation
													End Site
													{
														OFFSET 0.000000 0.000000 0.000000
													}
												}
											}
										}
										JOINT RightHandRing1
										{
											OFFSET -24.660927 0.144547 -6.225808
											CHANNELS 3 Xrotation Yrotation Zrotation
											JOINT RightHandRing2
											{
												OFFSET -9.393799 0.000000 0.000000
												CHANNELS 3 Xrotation Yrotation Zrotation
												JOINT RightHandRing3
												{
													OFFSET -9.928497 0.000000 0.000000
													CHANNELS 3 Xrotation Yrotation Zrotation
													End Site
													{
														OFFSET 0.000000 0.000000 0.000000
													}
												}
											}
										}
										JOINT RightHandPinky1
										{
											OFFSET -23.655350 0.125290 -12.815412
											CHANNELS 3 Xrotation Yrotation Zrotation
											JOINT RightHandPinky2
											{
												OFFSET -8.425102 0.000000 0.000000
												CHANNELS 3 Xrotation Yrotation Zrotation
												JOINT RightHandPinky3
												{
													OFFSET -8.147003 0.000000 0.000000
													CHANNELS 3 Xrotation Yrotation Zrotation
													End Site
													{
														OFFSET 0.000000 0.000000 0.000000
													}
												}
											}
										}
									}
								}
							}
						}
					}
				}
			}
		}
	}
	JOINT LeftUpLeg
	{
		OFFSET 11.394100 -6.187798 -0.413800
		CHANNELS 3 Xrotation Yrotation Zrotation
		JOINT LeftLeg
		{
			OFFSET 0.430247 -32.302673 3.732800
			CHANNELS 3 Xrotation Yrotation Zrotation
			JOINT LeftFoot
			{
				OFFSET -0.430247 -48.264931 -6.423300
				CHANNELS 3 Xrotation Yrotation Zrotation
				JOINT LeftToeBase
				{
					OFFSET 4.230900 -16.068199 23.438400
					CHANNELS 3 Xrotation Yrotation Zrotation
					JOINT LeftToe_End
					{
						OFFSET 4.510700 0.695400 19.974600
						CHANNELS 3 Xrotation Yrotation Zrotation
						End Site
						{
							OFFSET 0.000000 0.000000 0.000000
						}
					}
				}
			}
		}
	}
	JOINT RightUpLeg
	{
		OFFSET -11.333700 -6.187798 -0.413800
		CHANNELS 3 Xrotation Yrotation Zrotation
		JOINT RightLeg
		{
			OFFSET -0.430392 -32.302628 3.733000
			CHANNELS 3 Xrotation Yrotation Zrotation
			JOINT RightFoot
			{
				OFFSET 0.430392 -48.264973 -6.423500
				CHANNELS 3 Xrotation Yrotation Zrotation
				JOINT RightToeBase
				{
					OFFSET -4.230900 -16.068199 23.438400
					CHANNELS 3 Xrotation Yrotation Zrotation
					JOINT RightToe_End
					{
						OFFSET -4.510700 0.695400 19.974600
						CHANNELS 3 Xrotation Yrotation Zrotation
						End Site
						{
							OFFSET 0.000000 0.000000 0.000000
						}
					}
				}
			}
		}
	}
}
MOTION
Frames: 6
Frame Time: 0.016667
-0.911171 133.176926 309.507324 6.681471 -36.906487 19.614364 36.572282 5.119216 -28.222400 10.113557 4.487076 -5.651611 0.000000 0.000000 0.000000 17.344348 -0.255003 0.868255 -12.219179 18.249668 -13.297137 -37.838664 -7.524092 1.760361 -0.000001 -0.000000 0.000000 3.460644 -8.918315 -0.904756 0.000000 0.000000 0.000000 -83.626801 1.219635 -12.071363 -339.578318 -61.813137 -343.756454 -7.849532 9.865840 25.085417 17.551587 -5.699185 -12.932256 10.850550 26.127728 8.644758 20.927035 51.115852 0.218651 -0.000000 -0.000000 -0.000002 13.980900 1.201563 -55.004371 0.370806 1.161716 -65.441887 -0.000001 0.000000 -0.000000 7.504734 1.174514 -63.778517 1.807879 1.475666 -64.568012 -0.000001 -0.000001 0.000001 8.574313 2.179153 -75.148992 -0.207617 1.009283 -57.855049 0.000000 0.000001 -0.000001 10.030094 13.637108 -84.750230 0.877124 0.062352 -64.595476 0.000001 -0.000002 0.000001 7.814341 26.927348 -8.074469 0.000000 0.000000 0.000000 -63.242723 -8.464379 33.803617 -75.905456 19.956827 56.360228 103.847781 -11.344585 -4.184681 -0.360665 0.058157 -0.543031 4.001293 -8.596760 -1.236484 3.857198 -10.852863 -1.955296 0.000002 0.000003 -0.000002 1.178592 -0.282687 1.711511 -0.146674 -0.226844 7.547513 -0.000001 0.000001 -0.000001 3.352582 -1.937799 -0.812889 0.311551 -0.271379 28.365060 0.000002 -0.000001 0.000001 2.261835 -7.957677 2.165572 0.288141 -0.079126 26.161651 0.000002 -0.000000 -0.000001 1.961592 -6.393508 2.504509 0.531433 0.722192 34.300592 -0.000001 0.000001 0.000001 -108.273791 -25.177057 11.513486 104.151888 15.036457 6.496102 4.848233 0.701910 9.173154 1.256074 -2.508914 -0.302555 -0.000000 -0.000000 0.000000 -112.610210 -25.379709 -7.586796 108.279426 17.273670 3.970974 24.853849 6.549384 12.228861 2.169879 0.173850 -1.568176 -0.000000 -0.000000 -0.000001 
-0.651079 132.710266 314.648102 8.148416 -36.571497 20.032735 36.283307 5.331439 -27.620134 10.417176 4.343069 -5.637415 0.000000 0.000000 0.000000 17.590075 -0.300818 0.846441 -11.986770 17.712576 -13.403265 -38.648690 -7.453904 1.396197 0.000001 -0.000000 -0.000000 3.732749 -8.938838 -0.897981 0.000000 0.000000 0.000000 -82.664038 -0.098877 -10.383351 -346.709828 -62.155097 -350.113912 -8.715356 8.791290 25.759005 17.551587 -5.699182 -12.932256 10.850551 26.127726 8.644755 20.927035 51.115852 0.218655 -0.000001 0.000001 -0.000001 13.980902 1.201566 -55.004371 0.370804 1.161717 -65.441887 0.000000 -0.000000 0.000000 7.504740 1.174515 -63.778510 1.807877 1.475665 -64.568012 0.000001 0.000000 0.000001 8.574316 2.179155 -75.148992 -0.207617 1.009283 -57.855056 0.000002 0.000002 0.000001 10.030095 13.637111 -84.750230 0.877122 0.062349 -64.595469 -0.000001 -0.000001 -0.000000 7.302795 26.569086 -6.881553 0.000000 0.000000 0.000000 -60.118191 -8.940510 34.394118 -76.312720 20.173455 58.156602 101.670269 -13.677694 -5.595377 -0.360542 0.058165 -0.542835 4.001294 -8.596770 -1.236495 3.857317 -10.852874 -1.955044 0.000001 0.000001 0.000002 1.178589 -0.282234 0.826526 -0.148742 -0.225335 6.662541 0.000000 0.000000 0.000000 3.352641 -1.937390 -1.697911 0.311844 -0.272001 27.480086 0.000002 0.000001 0.000003 2.261793 -7.957269 1.280575 0.287417 -0.081024 25.276671 0.000002 -0.000001 0.000001 1.961564 -6.393090 1.619551 0.531213 0.722512 33.415587 -0.000002 0.000002 0.000001 -106.210193 -24.195124 12.983158 101.705922 13.739095 6.486201 3.683783 0.770604 6.862651 1.268337 -2.454963 -0.300028 -0.000000 0.000001 -0.000003 -109.986085 -25.001699 -6.491580 100.151317 19.060165 6.750013 18.126706 5.542331 13.465982 1.921284 0.153605 -1.387463 0.000000 0.000000 -0.000000 
-0.462694 132.057190 319.893707 9.528361 -36.128672 20.378564 35.796810 5.579090 -26.975427 10.724710 4.198466 -5.583330 0.000000 0.000000 0.000000 17.800921 -0.342640 0.829318 -11.305822 16.957792 -13.348739 -39.456104 -7.132159 0.943233 0.000002 -0.000000 -0.000000 4.015688 -8.916287 -0.887797 0.000000 0.000000 0.000000 -82.276759 -1.094244 -8.977286 -352.924863 -62.243603 -355.786057 -9.353969 7.465121 26.072483 17.551585 -5.699182 -12.932254 10.850550 26.127722 8.644755 20.927037 51.115859 0.218653 0.000000 -0.000001 -0.000002 13.980901 1.201563 -55.004367 0.370805 1.161716 -65.441887 -0.000001 -0.000001 0.000000 7.504734 1.174518 -63.778510 1.807875 1.475663 -64.568012 0.000001 0.000003 0.000002 8.574314 2.179155 -75.148992 -0.207616 1.009284 -57.855056 -0.000000 -0.000000 -0.000001 10.030094 13.637110 -84.750230 0.877122 0.062350 -64.595476 -0.000000 -0.000002 -0.000000 6.746344 26.067562 -5.641314 0.000000 0.000000 0.000000 -56.516482 -9.132695 35.083912 -76.680621 20.592554 59.887037 98.889016 -15.813117 -7.286359 -0.360437 0.058155 -0.542661 4.001301 -8.596745 -1.236497 3.857416 -10.852893 -1.954822 0.000001 0.000001 0.000000 1.177311 -0.281991 0.225309 -0.150306 -0.224063 6.061325 -0.000004 0.000001 -0.000003 3.352819 -1.937113 -2.299101 0.310515 -0.273213 26.878869 0.000003 0.000001 0.000000 2.261796 -7.956970 0.679377 0.286935 -0.082356 24.675481 -0.000002 -0.000001 0.000002 1.961560 -6.392792 1.018349 0.532393 0.723583 32.814401 0.000001 0.000001 0.000003 -103.787559 -22.966825 13.481444 98.572266 13.788910 6.942053 2.673723 0.883291 4.877600 1.278419 -2.397622 -0.303845 -0.000001 0.000000 -0.000003 -105.321517 -22.759112 -5.699990 89.671962 20.543105 11.003868 13.266702 4.374736 14.838509 1.660054 0.132337 -1.199210 -0.000001 -0.000000 0.000003 
-0.334976 131.234833 325.194763 10.799995 -35.601770 20.665984 35.125925 5.850732 -26.310859 11.018716 4.045013 -5.488553 0.000000 0.000000 0.000000 17.963795 -0.390538 0.823576 -10.228573 16.066915 -13.225071 -40.188915 -6.646901 0.502569 -0.000001 0.000000 0.000000 4.292277 -8.864048 -0.877261 0.000000 0.000000 0.000000 -82.115294 -1.901186 -7.653572 -358.212987 -62.124423 -360.712153 -10.044901 6.053035 26.102942 17.551585 -5.699183 -12.932254 10.850550 26.127728 8.644755 20.927041 51.115859 0.218652 0.000000 -0.000001 -0.000000 13.980903 1.201565 -55.004371 0.370802 1.161716 -65.441887 -0.000001 0.000000 0.000000 7.504737 1.174519 -63.778517 1.807877 1.475667 -64.568019 0.000000 0.000002 0.000001 8.574316 2.179152 -75.148992 -0.207620 1.009282 -57.855049 0.000000 0.000002 -0.000001 10.030094 13.637110 -84.750230 0.877124 0.062351 -64.595469 0.000002 0.000003 -0.000000 6.167932 25.450309 -4.367979 0.000000 0.000000 0.000000 -52.538273 -9.038833 35.874390 -76.979128 21.195527 61.458951 95.621487 -17.694158 -9.145850 -0.360332 0.058173 -0.542502 4.001290 -8.596770 -1.236503 3.857515 -10.852896 -1.954652 0.000001 0.000001 0.000002 1.177751 -0.281655 -0.050753 -0.149892 -0.223213 5.785282 0.000003 -0.000002 -0.000001 3.352994 -1.937007 -2.575185 0.309740 -0.272609 26.602825 0.000002 -0.000002 0.000001 2.262877 -7.956888 0.403466 0.287541 -0.082927 24.399399 0.000000 -0.000000 -0.000001 1.961574 -6.392699 0.742257 0.533005 0.724129 32.538266 -0.000001 0.000000 0.000001 -101.044384 -21.443027 13.948284 94.898177 14.308442 7.621382 1.123528 0.961485 3.309026 1.286335 -2.336821 -0.314109 -0.000002 -0.000000 -0.000001 -99.527160 -18.680369 -4.204495 78.346470 19.593934 15.828485 11.678812 3.224468 15.990212 1.393558 0.110566 -1.006162 0.000002 -0.000000 0.000001 
-0.252878 130.230118 330.529449 11.951583 -35.031111 20.885936 34.285060 6.166553 -25.635020 11.281678 3.874418 -5.352226 0.000000 0.000000 0.000000 18.065666 -0.454593 0.835909 -8.804521 15.105843 -13.118125 -40.783876 -6.073325 0.161761 -0.000001 -0.000000 0.000000 4.491531 -8.733899 -0.871723 0.000000 0.000000 0.000000 -81.674733 -2.197579 -6.386343 -362.687198 -62.302499 -364.885863 -11.003408 4.552248 26.057547 17.551588 -5.699182 -12.932254 10.850550 26.127721 8.644755 20.927035 51.115859 0.218653 0.000000 -0.000001 0.000002 13.980901 1.201563 -55.004367 0.370805 1.161718 -65.441887 -0.000001 -0.000001 0.000000 7.504737 1.174513 -63.778510 1.807876 1.475666 -64.568012 0.000002 -0.000002 0.000000 8.574315 2.179155 -75.148992 -0.207615 1.009281 -57.855042 -0.000000 0.000000 0.000000 10.030094 13.637109 -84.750230 0.877126 0.062350 -64.595476 0.000001 -0.000001 -0.000002 5.587778 24.745909 -3.074828 0.000000 0.000000 0.000000 -48.292825 -8.678180 36.751472 -77.194443 21.926485 62.804027 91.988523 -18.985665 -11.133776 -0.360248 0.058180 -0.542391 4.001293 -8.596755 -1.236524 3.857581 -10.852907 -1.954494 0.000001 -0.000004 -0.000002 1.177766 -0.281665 -0.001234 -0.149634 -0.223085 5.834809 -0.000000 -0.000001 -0.000003 3.353084 -1.936994 -2.525633 0.309728 -0.272345 26.652341 0.000003 -0.000002 -0.000000 2.262819 -7.956866 0.452967 0.287599 -0.082690 24.448922 -0.000001 0.000000 0.000001 1.961552 -6.392708 0.791775 0.532897 0.724044 32.587854 0.000002 0.000001 0.000001 -98.467613 -19.878082 14.496440 91.289119 14.404946 8.103401 -0.479944 1.006396 2.318999 1.291753 -2.273245 -0.330001 -0.000000 0.000001 -0.000000 -93.435970 -12.952957 -2.479454 67.509303 15.850938 19.816860 11.380650 3.360798 17.509405 1.129797 0.089281 -0.815949 0.000000 0.000000 0.000002 
-0.182800 129.090485 335.824371 12.983868 -34.480861 21.016007 33.287152 6.580804 -24.949520 11.496448 3.678318 -5.173558 0.000000 0.000000 0.000000 18.093504 -0.544867 0.872987 -7.085758 14.137226 -13.131163 -41.181348 -5.490140 0.017712 -0.000001 0.000000 -0.000000 4.628201 -8.537112 -0.869790 0.000000 0.000000 0.000000 -81.008537 -2.194267 -5.076137 -366.354818 -62.591307 -368.346966 -12.335321 2.974191 25.872968 17.551588 -5.699183 -12.932248 10.850550 26.127726 8.644760 20.927032 51.115852 0.218651 0.000000 0.000001 0.000001 13.980899 1.201564 -55.004371 0.370805 1.161716 -65.441887 0.000000 -0.000000 0.000000 7.504735 1.174516 -63.778517 1.807877 1.475666 -64.568012 -0.000001 -0.000001 0.000001 8.574315 2.179153 -75.148992 -0.207617 1.009286 -57.855049 0.000003 -0.000001 -0.000001 10.030094 13.637110 -84.750230 0.877126 0.062351 -64.595476 0.000001 -0.000001 0.000002 5.022796 23.984199 -1.773811 0.000000 0.000000 0.000000 -43.895307 -8.087570 37.705158 -77.297763 22.755458 63.861859 88.157217 -19.416455 -13.174216 -0.360174 0.058179 -0.542299 4.001303 -8.596767 -1.236547 3.857637 -10.852908 -1.954365 -0.000001 0.000001 -0.000002 1.177449 -0.282011 0.327625 -0.149529 -0.223637 6.163646 -0.000001 0.000003 -0.000001 3.353100 -1.937145 -2.196779 0.310320 -0.272422 26.981185 -0.000000 0.000002 -0.000001 2.261825 -7.956992 0.781681 0.287156 -0.081862 24.777780 0.000000 0.000000 0.000001 1.961567 -6.392876 1.120637 0.532241 0.723474 32.916727 0.000002 0.000000 0.000001 -95.795049 -18.184259 15.505981 87.306968 14.342251 8.312029 -1.858502 1.026100 1.692044 1.293985 -2.206953 -0.350432 -0.000000 -0.000000 0.000000 -86.858717 -6.887423 -1.499962 57.525315 10.438449 22.521108 12.693144 3.052453 17.473711 0.876040 0.068431 -0.632413 0.000002 -0.000001 -0.000001 
